<svg width="67" height="67" viewBox="0 0 67 67" fill="none" xmlns="http://www.w3.org/2000/svg">
<path d="M66.5 33.25C66.5 14.8865 51.6135 0 33.25 0C14.8865 0 0 14.8865 0 33.25C0 49.846 12.159 63.6017 28.0547 66.0961V42.8613H19.6123V33.25H28.0547V25.9246C28.0547 17.5913 33.0187 12.9883 40.6137 12.9883C44.2515 12.9883 48.0566 13.6377 48.0566 13.6377V21.8203H43.8639C39.7334 21.8203 38.4453 24.3834 38.4453 27.0128V33.25H47.667L46.1928 42.8613H38.4453V66.0961C54.341 63.6017 66.5 49.846 66.5 33.25Z" fill="#1877F2"/>
<path d="M46.1928 42.8613L47.667 33.25H38.4453V27.0128C38.4453 24.3834 39.7334 21.8203 43.8639 21.8203H48.0566V13.6377C48.0566 13.6377 44.2515 12.9883 40.6137 12.9883C33.0187 12.9883 28.0547 17.5913 28.0547 25.9246V33.25H19.6123V42.8613H28.0547V66.0961C29.7475 66.3617 31.4826 66.5 33.25 66.5C35.0174 66.5 36.7525 66.3617 38.4453 66.0961V42.8613H46.1928Z" fill="#F5FAF8"/>
</svg>
