<svg width="65" height="65" viewBox="0 0 65 65" fill="none" xmlns="http://www.w3.org/2000/svg">
<path d="M56.5 0.25H8.5C4.08172 0.25 0.5 3.83172 0.5 8.25V56.25C0.5 60.6683 4.08172 64.25 8.5 64.25H56.5C60.9183 64.25 64.5 60.6683 64.5 56.25V8.25C64.5 3.83172 60.9183 0.25 56.5 0.25Z" fill="black"/>
<path d="M28.132 26.8404V25.0996C27.5352 25.018 26.9288 24.9668 26.3096 24.9668C18.8536 24.9668 12.788 31.0324 12.788 38.4884C12.788 43.0628 15.0744 47.1108 18.5608 49.5588C16.3096 47.1428 14.9288 43.906 14.9288 40.3524C14.9288 33.0036 20.8232 27.01 28.132 26.8388V26.8404Z" fill="#25F4EE"/>
<path d="M28.452 46.53C31.7784 46.53 34.492 43.8836 34.6152 40.5876L34.6264 11.146H40.0056C39.8936 10.5412 39.8328 9.9188 39.8328 9.282H32.4856L32.4744 38.7236C32.3512 42.0212 29.6376 44.666 26.3112 44.666C25.2776 44.666 24.3032 44.4068 23.4472 43.9572C24.5704 45.5124 26.3928 46.5316 28.4536 46.5316L28.452 46.53Z" fill="#25F4EE"/>
<path d="M50.052 21.138V19.5012C48.0008 19.5012 46.0888 18.8916 44.4856 17.8468C45.9128 19.4852 47.852 20.6676 50.052 21.138Z" fill="#25F4EE"/>
<path d="M44.4872 17.8468C42.924 16.0516 41.9736 13.7076 41.9736 11.146H40.0056C40.524 13.9444 42.1848 16.346 44.4872 17.8468Z" fill="#FE2C55"/>
<path d="M26.3096 32.3156C22.9048 32.3156 20.1336 35.0852 20.1336 38.4916C20.1336 40.8628 21.4792 42.9236 23.444 43.9572C22.7112 42.9428 22.2744 41.6996 22.2744 40.3556C22.2744 36.9508 25.0456 34.1796 28.4504 34.1796C29.0856 34.1796 29.6952 34.2852 30.2728 34.4644V26.9652C29.676 26.8836 29.0696 26.8324 28.4504 26.8324C28.3432 26.8324 28.2376 26.8388 28.1304 26.8404V32.6004C27.5544 32.4196 26.9432 32.3156 26.308 32.3156H26.3096Z" fill="#FE2C55"/>
<path d="M50.052 21.138V26.8484C46.2424 26.8484 42.7128 25.6292 39.8312 23.562V38.4916C39.8312 45.9476 33.7656 52.0132 26.3096 52.0132C23.428 52.0132 20.756 51.1044 18.5608 49.562C21.0312 52.2132 24.5496 53.8772 28.452 53.8772C35.908 53.8772 41.9736 47.8116 41.9736 40.3556V25.426C44.8552 27.4948 48.3848 28.7124 52.1944 28.7124V21.3652C51.46 21.3652 50.7432 21.2852 50.0536 21.138H50.052Z" fill="#FE2C55"/>
<path d="M39.8312 38.49V23.5604C42.7128 25.6292 46.2424 26.8468 50.052 26.8468V21.1364C47.852 20.666 45.9128 19.4836 44.4856 17.8452C42.1832 16.3444 40.5224 13.9428 40.004 11.1444H34.6248L34.6136 40.586C34.4904 43.8836 31.7768 46.5284 28.4504 46.5284C26.3896 46.5284 24.5672 45.5108 23.444 43.954C21.4776 42.9188 20.1336 40.8596 20.1336 38.4884C20.1336 35.0836 22.9048 32.3124 26.3096 32.3124C26.9448 32.3124 27.5544 32.418 28.132 32.5972V26.8372C20.8232 27.0084 14.9288 33.002 14.9288 40.3508C14.9288 43.906 16.3096 47.1412 18.5608 49.5572C20.7576 51.0996 23.428 52.0084 26.3096 52.0084C33.7656 52.0084 39.8312 45.9428 39.8312 38.4868V38.49Z" fill="#F5FAF8"/>
</svg>
