<svg width="1462" height="816" viewBox="0 0 1462 816" fill="none" xmlns="http://www.w3.org/2000/svg">
<path opacity="0.25" d="M974.44 53.4347V205.869M1217.56 53.4347V205.869M974.762 205.667H1216.59M974.762 205.667V53.232M974.762 205.667V510.131M974.762 53.232H1216.59M974.762 53.232V-98.7973M1218.2 205.464H1460.04M1218.2 53.0293H1460.04M975.084 53.4347H1216.92M975.084 -99H1216.92M975.084 357.899H1216.92M975.084 205.464H1216.92M731.322 357.899H973.154M731.322 205.464H731.643M731.643 205.464H973.154M731.643 205.464V53.6374M731.643 205.464V206.072M974.119 -98.7973V53.6374M731.322 -99H973.154M1218.2 53.4347H1460.04M1218.2 -99H1460.04M1218.2 357.899H1460.04M731.965 205.869H973.797M244.441 53.4347L244.441 205.869M487.559 53.4347V205.869M244.762 205.667H486.595M244.762 205.667V53.232M244.762 205.667V510.131M244.762 53.232H486.595M244.762 53.232V-98.7973M488.203 205.464H730.035M488.203 53.0293H730.035M245.084 53.4347H486.916M245.084 -99H486.916M245.084 357.899H486.916M245.084 205.464H486.916M1.3216 357.899H243.154M1.3216 205.464H1.64317M1.64317 205.464H243.154M1.64317 205.464L1.64318 53.6374M1.64317 205.464L1.64317 206.072M1.00001 -98.7973L1 53.6374M244.119 -98.7973L244.119 53.6374M1.3216 -99H243.154M488.203 53.4347H730.035M488.203 -99H730.035M488.203 357.899H730.035M1.96477 205.869H243.797M244.441 510.333L244.441 662.768M487.559 510.333V662.768M244.762 662.565H486.595M244.762 662.565V510.131M244.762 662.565L244.762 815M244.762 510.131H486.595M488.203 662.363H730.035M488.203 509.928H730.035M245.084 510.333H486.916M245.084 814.797H486.916M245.084 662.363H486.916M1.00001 662.565L1 815M244.119 662.565L244.119 815M1.3216 814.797H243.154M1.3216 662.363H1.64317M1.64317 662.363H243.154M1.64317 662.363L1.64318 510.536M1.64317 662.363L1.64317 662.971M488.203 510.333H730.035M488.203 814.797H730.035M1.96477 662.768H243.797M974.44 510.333V662.768M1217.56 510.333V662.768M974.762 662.565H1216.59M974.762 662.565V510.131M974.762 662.565V815M974.762 510.131H1216.59M1218.2 662.363H1460.04M1218.2 509.928H1460.04M975.084 510.333H1216.92M975.084 814.797H1216.92M975.084 662.363H1216.92M974.119 662.565V815M731.322 814.797H973.154M731.322 662.363H731.643M731.643 662.363H973.154M731.643 662.363V510.536M731.643 662.363V662.971M1218.2 510.333H1460.04M1218.2 814.797H1460.04M731.965 662.768H973.797M1217.88 -98.7973V815M974.119 205.667V510.536M731.322 53.4347H973.797M1461 -98.7973V815M487.881 -98.7973V815M1.00001 205.667L1 510.536M244.119 205.667L244.119 510.536M1.3216 53.4347H243.797M1.3216 510.333H243.797M731.322 510.333H973.797M731 -98.7973V815" stroke="url(#paint0_radial_736_4232)"/>
<defs>
<radialGradient id="paint0_radial_736_4232" cx="0" cy="0" r="1" gradientUnits="userSpaceOnUse" gradientTransform="translate(731 358) rotate(89.988) scale(515 818.005)">
<stop offset="0.72" stop-color="#B7BBB9"/>
<stop offset="1" stop-color="#4B4B4B" stop-opacity="0"/>
</radialGradient>
</defs>
</svg>
