<svg width="87" height="85" viewBox="0 0 87 85" fill="none" xmlns="http://www.w3.org/2000/svg">
<path d="M44.5297 27.0076C43.7266 27.0248 42.9013 27.1058 42.1154 27.245C39.2598 27.751 36.649 29.0199 34.4557 30.9684C33.7319 31.6119 33.0213 32.3651 32.404 33.1428C30.4007 35.666 29.2348 38.687 29.0277 41.8905C29.0032 42.2777 28.9966 42.5487 29.0015 43.0678C29.0056 43.5655 29.0097 43.672 29.0359 44.0436C29.275 47.4158 30.5849 50.6513 32.7732 53.2743C33.6828 54.364 34.7414 55.3472 35.8843 56.1627C38.1832 57.8033 40.9324 58.7685 43.8625 58.9642C44.5182 59.0076 45.26 59.0117 45.9133 58.9757C49.0735 58.8021 52.1141 57.7435 54.1739 56.0996C54.2902 56.0063 54.5145 55.8155 54.6119 55.7263C54.7413 55.6076 54.9443 55.4062 54.9419 55.398C54.9386 55.3874 52.309 53.9358 51.2185 53.3423C50.2409 52.8101 49.6105 52.4728 49.5614 52.4565C49.4885 52.4319 49.4173 52.4245 49.2871 52.4295C49.1201 52.436 49.0407 52.4532 48.8033 52.5342C47.9772 52.8183 47.3927 52.9731 46.7197 53.0852C46.0918 53.19 45.5842 53.2318 44.9513 53.2326C44.1556 53.2326 43.4654 53.1589 42.7286 52.996C41.151 52.6456 39.6413 51.8883 38.3969 50.8216C38.1046 50.571 37.7034 50.1846 37.4685 49.9259C36.8184 49.2128 36.2683 48.4163 35.8393 47.5681C34.8249 45.559 34.5048 43.3191 34.9272 41.1799C35.4119 38.7222 36.685 36.5723 38.5614 35.043C40.6638 33.3287 43.3549 32.528 46.0607 32.8113C46.8548 32.8948 47.6522 33.0708 48.4021 33.3287C48.4947 33.3598 48.6379 33.4089 48.7214 33.4376C48.9441 33.5137 49.1144 33.5481 49.2724 33.5481C49.378 33.5481 49.4566 33.5293 49.5524 33.481C49.7571 33.3778 50.6486 32.9046 51.2594 32.5755C51.9635 32.1964 52.3744 31.9729 54.0225 31.0716C54.2796 30.9316 54.6201 30.7449 54.7798 30.6581C54.9394 30.5713 55.0737 30.4968 55.077 30.4936C55.0843 30.4878 54.8698 30.32 54.6529 30.1612C53.1096 29.0355 51.3462 28.1783 49.4746 27.6454C48.2425 27.295 47.0325 27.0936 45.7332 27.0232C45.5817 27.015 44.9145 26.9978 44.8449 27.0002C44.8269 27.0011 44.6853 27.0043 44.5297 27.0076Z" fill="#42A4FF"/>
<path d="M55.126 34.686C53.767 35.4924 52.6708 36.1473 52.6716 36.153C52.6724 36.1596 52.7313 36.2431 52.8026 36.3397C53.5378 37.3295 53.925 37.932 54.2304 38.56C54.4457 39.0029 54.6111 39.4597 54.7159 39.8985L54.7437 40.0148L48.6108 40.0156C45.2378 40.0156 41.8812 40.0189 41.1517 40.023C39.8696 40.0303 39.823 40.0312 39.746 40.0475C39.5855 40.0803 39.3956 40.1548 39.2818 40.2285C39.2212 40.2678 39.1402 40.3423 39.1164 40.3816C39.078 40.4438 38.9249 40.9383 38.8479 41.2485C38.6817 41.9223 38.6088 42.5429 38.6203 43.1921C38.6277 43.5769 38.658 43.9027 38.721 44.2556C38.798 44.6895 38.947 45.2192 39.055 45.4484C39.2245 45.8045 39.4537 45.9544 39.8705 45.9822C39.9269 45.9863 40.4796 45.9863 41.0985 45.983C43.1158 45.9724 48.9678 45.9666 52.0133 45.9732L54.9901 45.9797L53.8857 47.9519C53.2774 49.0359 52.7813 49.9242 52.7829 49.925C52.8067 49.9422 57.6296 52.7871 57.6345 52.7871C57.6378 52.7871 57.7 52.7159 57.772 52.6291C58.5564 51.6884 59.1876 50.652 59.7058 49.4551C60.4058 47.8382 60.8405 45.9806 60.9641 44.0886C60.9871 43.7275 60.9936 43.5589 60.9985 43.1348C61.0329 40.1785 60.3313 37.35 59.0132 35.128C58.6947 34.591 58.3238 34.0711 57.935 33.6168C57.8236 33.4874 57.628 33.2704 57.5977 33.2434C57.5829 33.2295 57.4896 33.2844 55.126 34.686Z" fill="#42A4FF"/>
<path d="M78.7067 46.7602C78.7682 46.2305 78.9212 45.7516 79.1655 45.3236C79.4098 44.8956 79.7238 44.5327 80.1074 44.235C80.491 43.9372 80.9257 43.7193 81.4115 43.5811C81.8966 43.4495 82.414 43.4156 82.9636 43.4795C83.5133 43.5433 84.0095 43.6915 84.4523 43.9242C84.9009 44.1642 85.2748 44.4694 85.5741 44.8397C85.8792 45.2174 86.0984 45.6422 86.2315 46.1141C86.3712 46.5867 86.4103 47.0879 86.3488 47.6176C86.2873 48.1474 86.1429 48.6105 85.9156 49.0069C85.6876 49.41 85.4077 49.7399 85.0758 49.9967C84.7506 50.2542 84.4052 50.4255 84.0396 50.5105L83.6031 49.2417C84.0033 49.1473 84.3419 48.9483 84.6187 48.6449C84.8956 48.3415 85.0617 47.9514 85.1171 47.4746C85.1709 47.011 85.1093 46.5878 84.9323 46.2048C84.7546 45.8284 84.4852 45.5186 84.1242 45.2753C83.7624 45.0387 83.3232 44.8904 82.8067 44.8304C82.2902 44.7704 81.825 44.817 81.4113 44.9703C81.0033 45.131 80.6693 45.3774 80.4093 45.7096C80.1492 46.0419 79.9922 46.4397 79.9384 46.9033C79.8946 47.2807 79.927 47.6369 80.0358 47.9717C80.1512 48.3072 80.3335 48.5868 80.5827 48.8104C80.8385 49.0347 81.1552 49.1688 81.5326 49.2126L82.0988 49.2784L81.4909 49.832L81.8093 47.0904L82.9516 47.2231L82.5478 50.6997L81.8028 50.6132C81.2333 50.547 80.7412 50.3925 80.3264 50.1497C79.9117 49.9069 79.5745 49.6027 79.315 49.2369C79.0613 48.8786 78.8822 48.4853 78.7775 48.0571C78.6795 47.6296 78.6559 47.1973 78.7067 46.7602Z" fill="white"/>
<path d="M77.6368 52.8982L83.5815 54.8275L84.1773 52.9918L85.3187 53.3622L83.7135 58.3083L82.5721 57.9378L83.1586 56.1306L77.2139 54.2013L77.6368 52.8982Z" fill="white"/>
<path d="M76.3865 56.8421L82.923 60.4164L81.4165 63.1714C81.1798 63.6043 80.9023 63.9312 80.5839 64.1522C80.2681 64.3822 79.928 64.504 79.5635 64.5174C79.2017 64.5399 78.8278 64.4456 78.4417 64.2345C78.1434 64.0714 77.9074 63.836 77.7337 63.5283C77.5627 63.2296 77.4884 62.8584 77.5107 62.4147L78.0634 62.717C77.7647 62.9715 77.4734 63.1428 77.1898 63.2308C76.9061 63.3188 76.6323 63.3401 76.3685 63.2946C76.1046 63.2491 75.8498 63.1592 75.6042 63.0248C74.9783 62.6826 74.6005 62.2063 74.4708 61.5958C74.3438 60.9945 74.4801 60.3282 74.8799 59.5971L76.3865 56.8421ZM76.7868 58.6111L75.8656 60.2956C75.6961 60.6056 75.6466 60.8977 75.7171 61.1718C75.7902 61.4549 75.9701 61.6748 76.2567 61.8316C76.5433 61.9883 76.8255 62.0211 77.1033 61.9298C77.378 61.8445 77.6001 61.6468 77.7696 61.3368L78.6908 59.6522L76.7868 58.6111ZM79.7348 60.2231L78.8473 61.8463C78.7129 62.092 78.676 62.3263 78.7364 62.5493C78.8026 62.7755 78.9498 62.9509 79.178 63.0757C79.4061 63.2004 79.6274 63.2265 79.8419 63.1538C80.0564 63.0811 80.2308 62.922 80.3651 62.6763L81.2527 61.0531L79.7348 60.2231Z" fill="white"/>
<path d="M72.7936 63.2802L78.4479 68.1311L76.6443 70.2334C76.3144 70.618 75.9527 70.8962 75.5593 71.0681C75.1665 71.2494 74.7645 71.3086 74.3531 71.2455C73.9467 71.1867 73.5538 70.9946 73.1743 70.669C72.7847 70.3347 72.5336 69.9568 72.421 69.5352C72.304 69.1186 72.3143 68.6971 72.4519 68.2705L69.0691 67.6215L70.0719 66.4527L73.7453 67.1929L72.7776 67.5222L73.9952 66.103L71.9081 64.3124L72.7936 63.2802ZM74.906 66.8843L73.9749 67.9696C73.8143 68.1569 73.7108 68.3492 73.6644 68.5465C73.6231 68.7483 73.6357 68.9435 73.7021 69.1323C73.7686 69.321 73.8878 69.4892 74.0598 69.6368C74.2369 69.7887 74.4213 69.881 74.6129 69.9136C74.8095 69.9506 75.0019 69.9312 75.1899 69.8553C75.383 69.7838 75.5599 69.6544 75.7205 69.4672L76.6516 68.3819L74.906 66.8843Z" fill="white"/>
<path d="M68.4083 68.4865L70.8769 75.9707L69.4766 77.037L62.9186 72.6667L64.0961 71.7701L65.4871 72.7219L67.7784 70.9772L67.2387 69.3771L68.4083 68.4865ZM68.1951 72.1682L66.5243 73.4404L69.7585 75.6409L69.4561 75.8711L68.1951 72.1682Z" fill="white"/>
<path d="M59.499 74.3269C59.924 74.1184 60.3572 74.0025 60.7986 73.979C61.2341 73.9585 61.651 74.0214 62.0494 74.1675C62.4448 74.3226 62.7933 74.5564 63.095 74.8687L62.2962 75.8063C61.9467 75.5025 61.5651 75.3147 61.1512 75.2429C60.7402 75.1772 60.3432 75.2382 59.9601 75.4261C59.7447 75.5318 59.5753 75.6557 59.4519 75.7979C59.3255 75.949 59.2498 76.1049 59.2247 76.2657C59.1937 76.4295 59.2192 76.5951 59.3014 76.7627C59.3983 76.9603 59.5374 77.0925 59.7188 77.1595C59.8971 77.2354 60.1206 77.252 60.3892 77.2094L61.8757 76.9927C62.4757 76.8989 62.9866 76.949 63.4085 77.1431C63.8304 77.3371 64.1485 77.6526 64.3628 78.0896C64.5507 78.4726 64.6238 78.8563 64.5821 79.2406C64.5344 79.6278 64.3826 79.9845 64.1266 80.3105C63.8677 80.6454 63.5197 80.92 63.0828 81.1343C62.6817 81.331 62.2784 81.4397 61.8727 81.4604C61.47 81.4872 61.0873 81.4336 60.7246 81.2996C60.3588 81.1745 60.0339 80.9738 59.7498 80.6973L60.5352 79.7552C60.8313 80.0258 61.155 80.1863 61.5065 80.2367C61.8608 80.2931 62.2116 80.2361 62.5587 80.0659C62.7623 79.9661 62.9242 79.8421 63.0446 79.6939C63.1679 79.5518 63.2437 79.3958 63.2718 79.2261C63.2969 79.0653 63.2683 78.9011 63.1861 78.7335C63.0951 78.5479 62.9545 78.4127 62.7644 78.3277C62.5771 78.2488 62.3417 78.2306 62.0582 78.2731L60.6388 78.4903C60.021 78.578 59.5055 78.5338 59.0924 78.3577C58.6733 78.1846 58.3537 77.8735 58.1336 77.4246C57.9457 77.0416 57.8786 76.6549 57.9323 76.2648C57.9859 75.8746 58.1453 75.5106 58.4102 75.1727C58.6752 74.8349 59.0381 74.5529 59.499 74.3269Z" fill="white"/>
<path d="M55.925 76.0058L58.1979 83.1006L56.9028 83.5155L54.6298 76.4207L55.925 76.0058Z" fill="white"/>
<path d="M52.5243 77.0949L53.836 84.4285L52.4973 84.668L51.3968 78.5157L48.2567 79.0773L48.0454 77.8961L52.5243 77.0949Z" fill="white"/>
<path d="M40.9621 80.1597L40.7857 81.2961L36.586 80.6441L36.7624 79.5077L40.9621 80.1597Z" fill="white"/>
<path d="M26.9368 73.4465C27.399 73.7127 27.7782 74.0427 28.0746 74.4365C28.3709 74.8303 28.5799 75.2622 28.7015 75.7323C28.8232 76.2024 28.8513 76.6879 28.7859 77.1888C28.7148 77.6863 28.5411 78.1748 28.265 78.6543C27.9888 79.1338 27.6563 79.5309 27.2674 79.8454C26.8694 80.1624 26.4411 80.3851 25.9826 80.5133C25.515 80.6441 25.0381 80.6772 24.5521 80.6127C24.0628 80.554 23.5871 80.3915 23.1249 80.1253C22.6627 79.8592 22.2946 79.5433 22.0205 79.1777C21.7406 78.8088 21.5484 78.4211 21.4439 78.0148C21.3361 77.6142 21.3155 77.2292 21.3821 76.8598L22.7201 76.9611C22.6485 77.366 22.6972 77.7556 22.8662 78.13C23.0353 78.5043 23.3278 78.8113 23.7438 79.0508C24.1482 79.2837 24.5612 79.3947 24.983 79.3837C25.399 79.3694 25.7901 79.2446 26.1564 79.0094C26.5169 78.7708 26.8269 78.4262 27.0864 77.9756C27.346 77.525 27.4872 77.0793 27.5102 76.6387C27.5241 76.2005 27.43 75.7962 27.2278 75.4259C27.0256 75.0556 26.7224 74.754 26.318 74.5211C25.9887 74.3314 25.6488 74.2203 25.2983 74.1877C24.9445 74.1609 24.6156 74.2176 24.3116 74.358C24.0044 74.5041 23.7559 74.7419 23.5662 75.0712L23.2818 75.5651L23.014 74.7877L25.4057 76.1652L24.8318 77.1617L21.7988 75.4149L22.1731 74.765C22.4593 74.2682 22.7959 73.8774 23.183 73.5926C23.5702 73.3078 23.983 73.1186 24.4216 73.025C24.851 72.9338 25.2831 72.925 25.7178 72.9984C26.1492 73.0776 26.5555 73.227 26.9368 73.4465Z" fill="white"/>
<path d="M22.7759 71.0315L17.7226 76.5057L15.6873 74.6269C15.315 74.2832 15.0501 73.9117 14.8925 73.5122C14.7256 73.1132 14.6812 72.7092 14.7592 72.3004C14.8326 71.8964 15.039 71.5107 15.3781 71.1433C15.7263 70.7661 16.1131 70.5289 16.5385 70.4317C16.9591 70.33 17.38 70.3556 17.8013 70.5086L18.5728 67.1517L19.7044 68.1963L18.8311 71.8403L18.5372 70.8613L19.9113 72.1297L21.7766 70.109L22.7759 71.0315ZM19.0973 73.0115L18.0466 72.0415C17.8653 71.8742 17.6769 71.7638 17.4813 71.7103C17.2812 71.6617 17.0857 71.6671 16.8946 71.7267C16.7036 71.7862 16.5312 71.8993 16.3774 72.0658C16.2192 72.2373 16.1202 72.4181 16.0807 72.6084C16.0366 72.8036 16.049 72.9966 16.118 73.1872C16.1824 73.3828 16.3052 73.5642 16.4865 73.7316L17.5373 74.7015L19.0973 73.0115Z" fill="white"/>
<path d="M15.8428 63.5543C16.1732 64.0228 16.3691 64.5088 16.4304 65.0121C16.4879 65.51 16.418 65.9835 16.2208 66.4326C16.0236 66.8817 15.7071 67.2599 15.2713 67.5673L11.3569 70.3281L10.5731 69.2167L14.4302 66.4963C14.6808 66.3195 14.8685 66.1056 14.9932 65.8545C15.1141 65.5979 15.1626 65.3312 15.1386 65.0544C15.1093 64.7814 15.0062 64.5196 14.8295 64.269C14.6489 64.013 14.4369 63.828 14.1934 63.7142C13.9407 63.5987 13.6751 63.5576 13.3967 63.5909C13.1144 63.6186 12.848 63.7209 12.5974 63.8976L8.74022 66.6181L7.95636 65.5067L11.8707 62.7459C12.3065 62.4385 12.7691 62.2673 13.2583 62.2322C13.7475 62.1972 14.2189 62.293 14.6725 62.5197C15.1222 62.7409 15.5123 63.0858 15.8428 63.5543Z" fill="white"/>
<path d="M13.2022 59.8166L6.38483 62.8208L5.26378 60.2769C5.05947 59.8132 4.96475 59.3669 4.97965 58.9378C4.98575 58.5052 5.10611 58.1171 5.34072 57.7733C5.56924 57.4322 5.91227 57.1608 6.36981 56.9592C6.82125 56.7602 7.25434 56.6932 7.66908 56.7582C8.07503 56.8197 8.44137 56.9897 8.76811 57.2683C9.09485 57.5469 9.36038 57.918 9.5647 58.3816L10.1373 59.681L12.6538 58.5721L13.2022 59.8166ZM9.03921 60.1649L8.45853 58.8472C8.35906 58.6215 8.23032 58.4451 8.07233 58.318C7.90824 58.1936 7.72672 58.1206 7.52778 58.099C7.32884 58.0774 7.12566 58.1123 6.91824 58.2037C6.70472 58.2978 6.54186 58.4242 6.42967 58.5829C6.31138 58.7443 6.24583 58.9262 6.233 59.1285C6.21408 59.3336 6.25435 59.549 6.35382 59.7747L6.93451 61.0924L9.03921 60.1649Z" fill="white"/>
<path d="M9.99134 50.5302C10.0958 51.0668 10.0984 51.5859 9.99909 52.0875C9.89978 52.589 9.71375 53.0463 9.441 53.4594C9.16825 53.8725 8.82195 54.2218 8.40211 54.5073C7.97445 54.7875 7.49232 54.9798 6.95573 55.0843C6.41259 55.1901 5.89352 55.1926 5.39851 55.0921C4.90349 54.9915 4.45208 54.8009 4.04428 54.5203C3.63648 54.2398 3.29573 53.885 3.02205 53.4561C2.74182 53.0284 2.54883 52.543 2.44308 51.9999C2.33733 51.4568 2.33411 50.9344 2.43342 50.4328C2.53273 49.9313 2.71876 49.474 2.99152 49.0609C3.25772 48.6491 3.60138 48.3037 4.0225 48.0248C4.44234 47.7393 4.92383 47.5436 5.46697 47.4379C6.00356 47.3334 6.52327 47.3341 7.0261 47.44C7.52239 47.5471 7.97443 47.7409 8.38224 48.0215C8.79004 48.3021 9.13406 48.6562 9.41429 49.0839C9.69324 49.505 9.88559 49.9871 9.99134 50.5302ZM8.7742 50.7672C8.70412 50.4073 8.57762 50.089 8.39468 49.8121C8.20519 49.5366 7.97428 49.3099 7.70192 49.132C7.4283 48.9476 7.12297 48.827 6.78593 48.7704C6.44762 48.7072 6.09524 48.7113 5.72879 48.7826C5.36234 48.854 5.03744 48.9818 4.75409 49.166C4.46292 49.3449 4.22511 49.5712 4.04067 49.8448C3.84842 50.1132 3.71943 50.41 3.6537 50.7352C3.58798 51.0604 3.59015 51.403 3.66023 51.7629C3.72903 52.1163 3.8549 52.4314 4.03784 52.7082C4.22078 52.985 4.45233 53.215 4.7325 53.3981C5.00485 53.576 5.31018 53.6966 5.64849 53.7597C5.98026 53.8242 6.32936 53.8207 6.69582 53.7494C7.06227 53.678 7.39044 53.5496 7.68034 53.3641C7.97023 53.1786 8.20803 52.9524 8.39375 52.6853C8.57819 52.4117 8.70654 52.1116 8.77881 51.7851C8.84453 51.4599 8.843 51.1206 8.7742 50.7672Z" fill="white"/>
<path d="M9.154 40.5967L2.93538 39.9712L2.74222 41.8915L1.54825 41.7714L2.06866 36.5975L3.26263 36.7176L3.07248 38.6081L9.29111 39.2336L9.154 40.5967Z" fill="white"/>
<path d="M9.58502 36.4591L2.40936 34.456L3.74027 29.6883L4.89609 30.011L3.93084 33.4688L5.7705 33.9823L6.68198 30.7171L7.83779 31.0398L6.92631 34.305L8.79488 34.8266L9.76013 31.3688L10.9159 31.6914L9.58502 36.4591ZM1.96711 32.4326L0.475586 31.3414L0.932668 29.704L2.31396 31.1901L1.96711 32.4326Z" fill="white"/>
<path d="M12.923 27.3906C12.6758 27.8632 12.3615 28.2555 11.9801 28.5676C11.6017 28.8738 11.1802 29.0972 10.7154 29.2378C10.2537 29.3725 9.77289 29.4144 9.27285 29.3635C8.77282 29.3127 8.27765 29.159 7.78734 28.9025C7.29702 28.6461 6.88682 28.3299 6.55673 27.9542C6.22383 27.5694 5.98398 27.1505 5.8372 26.6975C5.6876 26.2356 5.63515 25.7605 5.67986 25.2723C5.71865 24.781 5.86165 24.299 6.10884 23.8264C6.35603 23.3539 6.6567 22.9732 7.01086 22.6845C7.36812 22.3898 7.74763 22.182 8.14942 22.0612C8.5453 21.9372 8.92914 21.901 9.30094 21.9525L9.24057 23.2977C8.84487 23.2487 8.46344 23.3163 8.09628 23.5005C7.72322 23.6815 7.42699 23.9817 7.20761 24.4012C6.99132 24.8147 6.89722 25.2319 6.92531 25.6529C6.95649 26.0679 7.09704 26.4537 7.34698 26.8101C7.6 27.1606 7.9569 27.4564 8.41767 27.6974C8.87845 27.9384 9.32791 28.0644 9.76605 28.0754C10.2014 28.0774 10.5984 27.9728 10.9571 27.7617C11.3189 27.5447 11.6079 27.2294 11.8242 26.8159C12.0436 26.3965 12.1242 25.9835 12.066 25.5769C12.002 25.1672 11.837 24.8138 11.571 24.5167L12.6416 23.6998C12.8959 23.9758 13.0881 24.3133 13.218 24.7123C13.3419 25.1082 13.3848 25.5368 13.3465 25.9983C13.3114 26.4539 13.1702 26.918 12.923 27.3906Z" fill="white"/>
<path d="M15.154 23.0817L9.48207 18.2515L10.1693 17.4444L17.0302 17.9019L16.7573 18.392L12.471 14.7417L13.3528 13.7063L19.0247 18.5366L18.331 19.3512L11.4786 18.8221L11.719 18.3701L16.0358 22.0463L15.154 23.0817Z" fill="white"/>
<path d="M20.192 17.4784L15.3411 11.8241L16.3733 10.9386L21.2242 16.5929L20.192 17.4784Z" fill="white"/>
<path d="M25.8068 13.3826C25.3486 13.6555 24.8753 13.825 24.3869 13.8909C23.9042 13.9534 23.4281 13.9227 22.9586 13.7989C22.4948 13.6717 22.0633 13.4554 21.6641 13.15C21.2649 12.8446 20.9237 12.4542 20.6405 11.9788C20.3573 11.5035 20.1737 11.0193 20.0895 10.5262C20.0076 10.024 20.0228 9.5416 20.1352 9.0789C20.2499 8.60707 20.4542 8.17496 20.7481 7.78259C21.0386 7.38448 21.413 7.04895 21.8712 6.776C22.3294 6.50304 22.7849 6.33641 23.2379 6.2761C23.6966 6.21238 24.1287 6.23432 24.5342 6.34193C24.9363 6.44381 25.2822 6.61412 25.5719 6.85284L24.8155 7.96692C24.5041 7.71783 24.1439 7.5755 23.7347 7.5399C23.3221 7.49859 22.9124 7.59905 22.5058 7.8413C22.1049 8.08013 21.8061 8.38617 21.6094 8.75942C21.4184 9.12926 21.336 9.53145 21.362 9.966C21.3938 10.3971 21.5428 10.8361 21.8089 11.2828C22.0751 11.7295 22.3918 12.0724 22.7592 12.3114C23.1289 12.5412 23.5219 12.6602 23.938 12.6684C24.3599 12.6731 24.7713 12.5561 25.1722 12.3173C25.5788 12.075 25.8639 11.7655 26.0275 11.3887C26.1876 11.0062 26.2323 10.6188 26.1615 10.2264L27.5013 10.0917C27.5733 10.4601 27.5601 10.8482 27.4616 11.2561C27.3598 11.6582 27.1716 12.0457 26.8972 12.4188C26.6285 12.7883 26.265 13.1096 25.8068 13.3826Z" fill="white"/>
<path d="M33.2732 9.92076C32.7489 10.0757 32.2324 10.1275 31.7237 10.0763C31.215 10.025 30.7421 9.88327 30.305 9.65097C29.8679 9.41866 29.4873 9.10709 29.1632 8.71624C28.8437 8.31712 28.6064 7.85543 28.4515 7.33118C28.2947 6.80054 28.2428 6.28405 28.296 5.78172C28.3491 5.2794 28.496 4.81194 28.7365 4.37934C28.9771 3.94674 29.2979 3.57386 29.6989 3.26069C30.0981 2.94113 30.563 2.70293 31.0936 2.5461C31.6242 2.38927 32.1439 2.33648 32.6526 2.38773C33.1614 2.43897 33.6343 2.58075 34.0714 2.81306C34.5066 3.03897 34.883 3.34829 35.2007 3.74103C35.5248 4.13187 35.7652 4.59261 35.922 5.12326C36.077 5.6475 36.1256 6.16493 36.068 6.67554C36.0085 7.17976 35.8584 7.64817 35.6178 8.08076C35.3772 8.51336 35.0574 8.88944 34.6582 9.209C34.2655 9.52667 33.8038 9.76392 33.2732 9.92076ZM32.9217 8.73161C33.2734 8.62768 33.5783 8.47152 33.8365 8.26313C34.0928 8.04835 34.2965 7.79695 34.4478 7.50894C34.6054 7.21904 34.6964 6.90365 34.7208 6.56276C34.7516 6.21998 34.714 5.86958 34.6082 5.51155C34.5024 5.15353 34.3444 4.84223 34.1341 4.57764C33.9283 4.30478 33.6805 4.08953 33.3906 3.9319C33.1052 3.76598 32.7975 3.66575 32.4675 3.6312C32.1375 3.59664 31.7967 3.63133 31.4451 3.73525C31.0998 3.83729 30.7981 3.9925 30.5399 4.20089C30.2817 4.40928 30.0748 4.66162 29.919 4.95792C29.7678 5.24593 29.6768 5.56132 29.646 5.9041C29.6133 6.24048 29.6499 6.58769 29.7557 6.94571C29.8615 7.30374 30.0205 7.61824 30.2327 7.88921C30.4449 8.16019 30.6927 8.37544 30.9762 8.53496C31.2661 8.69259 31.577 8.79188 31.9089 8.83283C32.2389 8.86738 32.5765 8.83364 32.9217 8.73161Z" fill="white"/>
<path d="M41.8653 8.01899L42.124 0.573486L45.2621 0.682533C45.7552 0.699665 46.1719 0.800866 46.5124 0.986134C46.8597 1.16497 47.1212 1.4142 47.2969 1.73383C47.4794 2.04703 47.5631 2.42349 47.5478 2.86323C47.536 3.20302 47.4316 3.51959 47.2346 3.81292C47.0445 4.09983 46.7463 4.33294 46.3398 4.51227L46.3617 3.88265C46.7233 4.0353 47.0071 4.2186 47.2131 4.43255C47.4191 4.6465 47.561 4.88157 47.6389 5.13776C47.7167 5.39395 47.7507 5.66196 47.741 5.94179C47.7162 6.6547 47.4603 7.20614 46.9731 7.59612C46.4928 7.97967 45.8362 8.15698 45.0034 8.12804L41.8653 8.01899ZM43.2662 6.86695L45.185 6.93363C45.5381 6.9459 45.8213 6.85901 46.0346 6.67297C46.2547 6.4805 46.3705 6.22103 46.3818 5.89456C46.3932 5.56809 46.2957 5.30121 46.0894 5.09392C45.8898 4.88687 45.6135 4.77721 45.2604 4.76493L43.3415 4.69826L43.2662 6.86695ZM43.3829 3.50897L45.2317 3.57322C45.5116 3.58294 45.7375 3.51075 45.9097 3.35663C46.082 3.19586 46.1727 2.98555 46.1817 2.7257C46.1908 2.46586 46.1147 2.25642 45.9534 2.09739C45.7922 1.93836 45.5716 1.85399 45.2918 1.84426L43.4429 1.78002L43.3829 3.50897Z" fill="white"/>
<path d="M49.0111 8.28269L50.7954 1.04951L53.4848 1.71293C53.9767 1.83427 54.388 2.03187 54.7187 2.30571C55.0575 2.57467 55.2913 2.90702 55.4203 3.30276C55.5509 3.69203 55.5563 4.12939 55.4366 4.61484C55.3136 5.11323 55.0893 5.50765 54.7636 5.7981C54.4443 6.09014 54.0633 6.27081 53.6205 6.34011L54.5646 9.65263L53.0694 9.2838L52.0759 5.67068L52.8057 6.38631L50.9901 5.93845L50.3315 8.60841L49.0111 8.28269ZM51.2775 4.77337L52.6659 5.11586C52.9054 5.17493 53.1237 5.18072 53.3208 5.13321C53.5195 5.07923 53.6882 4.98007 53.8268 4.83573C53.9654 4.69139 54.0618 4.50919 54.1161 4.28912C54.172 4.06258 54.1714 3.85642 54.1142 3.67066C54.0586 3.47842 53.9546 3.31543 53.8022 3.18171C53.6514 3.04151 53.4563 2.94187 53.2168 2.88279L51.8284 2.54031L51.2775 4.77337Z" fill="white"/>
<path d="M55.7678 9.87499L61.3558 4.31785L62.936 5.09286L61.9628 12.9134L60.634 12.2617L60.8627 10.5917L58.277 9.32356L57.0876 10.5223L55.7678 9.87499ZM59.1556 8.4179L61.041 9.34262L61.5614 5.46565L61.9025 5.63298L59.1556 8.4179Z" fill="white"/>
<path d="M65.0453 15.268C64.6698 14.9799 64.3734 14.6433 64.1563 14.2582C63.9445 13.8772 63.8155 13.4758 63.7694 13.0539C63.7327 12.6308 63.7873 12.2147 63.9331 11.8056L65.1279 12.1047C65.011 12.5528 65.0123 12.9782 65.132 13.3808C65.2556 13.7782 65.4867 14.1068 65.8252 14.3665C66.0156 14.5126 66.2019 14.6093 66.3841 14.6566C66.5756 14.7027 66.7489 14.7013 66.9042 14.6523C67.0647 14.6074 67.2017 14.5109 67.3153 14.3628C67.4493 14.1882 67.5059 14.0048 67.4854 13.8126C67.4742 13.6191 67.3898 13.4115 67.2322 13.1898L66.3776 11.9544C66.027 11.4585 65.8449 10.9785 65.8313 10.5143C65.8178 10.0501 65.9591 9.625 66.2553 9.23888C66.515 8.90037 66.8263 8.66443 67.1891 8.53105C67.5572 8.40174 67.9442 8.3793 68.3499 8.46375C68.765 8.54696 69.1657 8.73668 69.5518 9.03292C69.9062 9.30482 70.1827 9.61786 70.3816 9.97206C70.5844 10.321 70.7064 10.6877 70.7475 11.0721C70.798 11.4554 70.7625 11.8357 70.6411 12.213L69.4481 11.928C69.559 11.5425 69.5589 11.1811 69.448 10.8439C69.341 10.5014 69.1342 10.2124 68.8274 9.97706C68.6476 9.83908 68.4645 9.74908 68.2783 9.70704C68.0962 9.65971 67.9228 9.66114 67.7582 9.71135C67.603 9.76032 67.4686 9.85886 67.355 10.007C67.2292 10.1709 67.1705 10.357 67.1789 10.5651C67.1913 10.7679 67.2796 10.9869 67.4437 11.222L68.2689 12.3971C68.622 12.9117 68.8114 13.3931 68.8371 13.8414C68.8682 14.2938 68.7315 14.7183 68.4272 15.115C68.1675 15.4535 67.8509 15.6854 67.4775 15.8106C67.1041 15.9359 66.7072 15.9549 66.2868 15.8676C65.8664 15.7804 65.4526 15.5805 65.0453 15.268Z" fill="white"/>
<path d="M68.0577 17.6225L73.3827 12.4123L74.3338 13.3844L69.0088 18.5946L68.0577 17.6225Z" fill="white"/>
<path d="M70.5832 20.18L76.5432 15.71L77.3592 16.798L72.3592 20.548L74.2732 23.1L73.3132 23.82L70.5832 20.18Z" fill="white"/>
<path d="M78.4971 28.9862L79.591 28.6312L80.9029 32.6736L79.8091 33.0286L78.4971 28.9862Z" fill="white"/>
</svg>
