<svg width="52" height="52" viewBox="0 0 52 52" fill="none" xmlns="http://www.w3.org/2000/svg">
<path d="M25.2358 0.0123598C23.9307 0.0402978 22.5897 0.172005 21.3125 0.39817C16.6721 1.22034 12.4295 3.28243 8.86546 6.44874C7.6894 7.49442 6.53463 8.71836 5.53153 9.98222C2.27609 14.0825 0.381628 18.9916 0.0450417 24.1973C0.00513035 24.8266 -0.00551268 25.267 0.00246959 26.1104C0.00912149 26.9193 0.0157734 27.0922 0.0583455 27.6962C0.446816 33.1761 2.57542 38.4337 6.13153 42.6963C7.60958 44.467 9.32976 46.0648 11.187 47.3898C14.9227 50.0559 19.3901 51.6244 24.1515 51.9424C25.2172 52.0129 26.4225 52.0196 27.4841 51.961C32.6194 51.679 37.5604 49.9588 40.9076 47.2874C41.0966 47.1357 41.4611 46.8258 41.6194 46.6808C41.8296 46.4878 42.1595 46.1606 42.1555 46.1473C42.1502 46.13 37.877 43.7712 36.105 42.8067C34.5165 41.9419 33.4921 41.3938 33.4123 41.3672C33.2939 41.3273 33.1781 41.3153 32.9666 41.3233C32.6952 41.334 32.5662 41.3619 32.1804 41.4936C30.838 41.9552 29.8881 42.2067 28.7945 42.3889C27.7741 42.5592 26.9493 42.6271 25.9209 42.6284C24.6278 42.6284 23.5063 42.5087 22.3089 42.2439C19.7453 41.6745 17.2921 40.4439 15.2699 38.7104C14.795 38.3034 14.1431 37.6754 13.7613 37.255C12.7049 36.0963 11.8109 34.8018 11.1138 33.4235C9.46546 30.1588 8.94528 26.5188 9.63176 23.0426C10.4193 19.0488 12.4881 15.5552 15.5373 13.07C18.9537 10.2842 23.3267 8.98311 27.7236 9.44342C29.0141 9.57912 30.3098 9.86515 31.5285 10.2842C31.6788 10.3348 31.9116 10.4146 32.0473 10.4612C32.4092 10.5849 32.6859 10.6408 32.9427 10.6408C33.1143 10.6408 33.242 10.6102 33.3977 10.5317C33.7303 10.364 35.179 9.59508 36.1715 9.06027C37.3156 8.4443 37.9835 8.08111 40.6615 6.61637C41.0793 6.38887 41.6327 6.08554 41.8921 5.94452C42.1516 5.8035 42.3697 5.68244 42.3751 5.67712C42.387 5.6678 42.0385 5.39508 41.6859 5.13698C39.1782 3.30771 36.3125 1.9148 33.2713 1.04873C31.269 0.479323 29.3027 0.15205 27.1914 0.037637C26.9453 0.0243332 25.8611 -0.00360475 25.748 0.000386394C25.7187 0.00171677 25.4886 0.00703829 25.2358 0.0123598Z" fill="#65BF95"/>
<path d="M42.455 12.4897C40.2466 13.8001 38.4652 14.8644 38.4666 14.8737C38.4679 14.8843 38.5637 15.02 38.6794 15.177C39.8741 16.7855 40.5034 17.7646 40.9996 18.785C41.3495 19.5048 41.6182 20.2471 41.7885 20.9602L41.8338 21.1491L31.8679 21.1504C26.3867 21.1504 20.9322 21.1558 19.7468 21.1624C17.6634 21.1744 17.5876 21.1757 17.4625 21.2023C17.2018 21.2555 16.8931 21.3766 16.7082 21.4963C16.6098 21.5602 16.4781 21.6813 16.4395 21.7451C16.3769 21.8462 16.1282 22.6498 16.0031 23.154C15.733 24.2489 15.6146 25.2573 15.6333 26.3123C15.6452 26.9376 15.6945 27.4671 15.7969 28.0405C15.922 28.7456 16.1641 29.6063 16.3397 29.9788C16.6151 30.5576 16.9876 30.801 17.6648 30.8462C17.7565 30.8529 18.6546 30.8529 19.6603 30.8476C22.9384 30.8303 32.4479 30.821 37.3969 30.8316L42.2342 30.8423L40.4395 34.0471C39.451 35.8086 38.6448 37.252 38.6475 37.2534C38.6861 37.2813 46.5233 41.9044 46.5313 41.9044C46.5367 41.9044 46.6378 41.7886 46.7548 41.6476C48.0293 40.119 49.0551 38.4347 49.8972 36.4897C51.0347 33.8622 51.7411 30.8436 51.942 27.7691C51.9792 27.1824 51.9899 26.9083 51.9979 26.2192C52.0537 21.4152 50.9136 16.8187 48.7717 13.2081C48.2542 12.3353 47.6515 11.4905 47.0196 10.7522C46.8386 10.542 46.5207 10.1894 46.4715 10.1455C46.4475 10.1229 46.2959 10.212 42.455 12.4897Z" fill="#65BF95"/>
</svg>
