<svg width="317" height="64" viewBox="0 0 317 64" fill="none" xmlns="http://www.w3.org/2000/svg">
<path d="M31.059 0.0153046C29.4528 0.0496902 27.8023 0.211788 26.2304 0.490143C20.5193 1.50204 15.2977 4.03996 10.9112 7.9369C9.46376 9.22387 8.04253 10.7303 6.80795 12.2858C2.8013 17.3321 0.46969 23.374 0.0554353 29.7811C0.0063142 30.5555 -0.00678476 31.0975 0.00303946 32.1356C0.0112263 33.1311 0.0194132 33.344 0.071809 34.0873C0.549921 40.8317 3.16971 47.3026 7.5464 52.5487C9.36552 54.728 11.4826 56.6945 13.7684 58.3253C18.3661 61.6066 23.8644 63.5371 29.7246 63.9284C31.0361 64.0152 32.5196 64.0234 33.8262 63.9513C40.1464 63.6042 46.2276 61.4871 50.3472 58.1992C50.5798 58.0126 51.0284 57.6311 51.2232 57.4526C51.4819 57.2152 51.888 56.8124 51.8831 56.796C51.8765 56.7747 46.6173 53.8717 44.4363 52.6846C42.4813 51.6203 41.2205 50.9457 41.1223 50.913C40.9766 50.8638 40.8341 50.8491 40.5738 50.8589C40.2398 50.872 40.0809 50.9064 39.6061 51.0685C37.954 51.6367 36.7849 51.9461 35.439 52.1705C34.1831 52.38 33.168 52.4635 31.9023 52.4652C30.3108 52.4652 28.9304 52.3178 27.4568 51.992C24.3016 51.2912 21.2823 49.7766 18.7935 47.6431C18.209 47.1421 17.4066 46.3693 16.9367 45.8518C15.6366 44.4257 14.5363 42.8325 13.6784 41.1362C11.6497 37.1181 11.0094 32.6383 11.8543 28.3598C12.8236 23.4444 15.3698 19.1447 19.1226 16.0861C23.3274 12.6574 28.7094 11.0561 34.1209 11.6226C35.7092 11.7896 37.304 12.1417 38.8038 12.6574C38.9888 12.7197 39.2754 12.8179 39.4424 12.8752C39.8877 13.0275 40.2283 13.0963 40.5443 13.0963C40.7555 13.0963 40.9127 13.0586 41.1043 12.962C41.5136 12.7557 43.2967 11.8093 44.5182 11.1511C45.9263 10.393 46.7483 9.94595 50.0443 8.14321C50.5585 7.86322 51.2396 7.4899 51.5589 7.31634C51.8782 7.14278 52.1467 6.99378 52.1533 6.98723C52.168 6.97577 51.739 6.64011 51.3051 6.32246C48.2187 4.07107 44.6918 2.35675 40.9487 1.29082C38.4845 0.590023 36.0645 0.187229 33.466 0.0464172C33.1631 0.0300407 31.8286 -0.00434113 31.6894 0.00056839C31.6534 0.0022049 31.3701 0.00875473 31.059 0.0153046Z" fill="#65BF95"/>
<path d="M52.2526 15.3717C49.5346 16.9845 47.3421 18.2944 47.3438 18.3059C47.3454 18.319 47.4633 18.486 47.6058 18.6792C49.0761 20.6588 49.8506 21.8639 50.4613 23.1198C50.892 24.0056 51.2227 24.9192 51.4323 25.7969L51.488 26.0294L39.2224 26.031C32.4765 26.031 25.7632 26.0375 24.3043 26.0457C21.7402 26.0605 21.6469 26.0621 21.493 26.0949C21.172 26.1604 20.7922 26.3094 20.5646 26.4567C20.4434 26.5353 20.2813 26.6843 20.2338 26.7629C20.1569 26.8873 19.8507 27.8763 19.6968 28.4969C19.3644 29.8444 19.2187 31.0856 19.2416 32.384C19.2563 33.1536 19.3169 33.8052 19.443 34.5109C19.5969 35.3787 19.8949 36.4381 20.111 36.8966C20.45 37.6088 20.9084 37.9085 21.7419 37.9642C21.8548 37.9723 22.9601 37.9723 24.1979 37.9658C28.2324 37.9445 39.9363 37.933 46.0273 37.9461L51.9808 37.9592L49.772 41.9037C48.5554 44.0715 47.5632 45.8481 47.5665 45.8497C47.6139 45.8841 57.2597 51.574 57.2695 51.574C57.2761 51.574 57.4005 51.4315 57.5446 51.258C59.1132 49.3766 60.3756 47.3037 61.4121 44.9099C62.812 41.6761 63.6814 37.9609 63.9287 34.1769C63.9745 33.4548 63.9876 33.1175 63.9975 32.2694C64.0662 26.3568 62.663 20.6997 60.0268 16.2559C59.3899 15.1818 58.6482 14.1421 57.8704 13.2333C57.6477 12.9746 57.2564 12.5407 57.1958 12.4867C57.1664 12.4588 56.9797 12.5685 52.2526 15.3717Z" fill="#65BF95"/>
<path d="M232.367 4.05581C226.751 4.58966 222.451 6.22089 219.168 9.06813C215.758 12.034 213.968 16.641 214.364 21.4259C214.542 23.5218 214.858 24.7971 215.56 26.2109C216.529 28.1881 218.101 29.9281 220.108 31.2627C221.136 31.9449 223.766 33.2202 225.268 33.7541C226.88 34.3374 230.073 35.237 232.614 35.8401C240.088 37.5998 242.184 38.3314 244.26 39.9231C245.723 41.0304 246.405 42.5528 246.277 44.4213C246.039 48.1287 242.757 50.4025 236.914 50.9166C235.688 51.0253 226.257 51.0352 224.072 50.9265L222.747 50.8672L212.387 27.9311L202.036 4.995L197.053 4.96534L192.06 4.94557L180.909 29.7304C174.769 43.3734 169.638 54.7722 169.5 55.0787L169.243 55.6323L164.25 48.5142C161.502 44.5894 159.258 41.3467 159.258 41.3072C159.258 41.2775 159.97 40.8821 160.84 40.4471C161.71 40.0022 162.827 39.3596 163.311 39.0037C166.949 36.3937 169.253 32.8347 170.123 28.4748C170.578 26.2208 170.657 23.7986 170.37 21.3073C169.589 14.6341 165.417 9.38449 158.882 6.83384C156.905 6.06271 155.036 5.59806 152.387 5.2125C151.003 5.01477 150.528 5.00489 138.18 4.97523L125.397 4.93568V31.935V58.9245H130.439H135.481V51.0649V43.2053H142.58H149.668L155.135 51.0649L160.612 58.9245H169.421H178.239L180.899 52.6961L183.558 46.4678L197.004 46.4876L210.449 46.5172L213.088 52.6764C214.542 56.0574 215.748 58.8454 215.768 58.8651C215.787 58.8849 220.434 58.9343 226.089 58.9739C238.209 59.053 240.038 58.9838 243.291 58.3214C246.82 57.5898 250.617 55.4247 252.752 52.9334C254.433 50.966 255.589 48.5241 256.064 45.9438C256.301 44.6784 256.291 41.841 256.054 40.4866C255.599 37.9656 254.63 36.0378 252.89 34.2286C251.714 33.0027 250.636 32.2415 248.778 31.3122C245.97 29.8984 243.973 29.2657 236.766 27.4862C230.35 25.8945 228.59 25.3013 226.909 24.1348C225.001 22.8199 224.26 21.3666 224.388 19.1916C224.547 16.2752 226.534 14.1694 230.142 13.0622C232.742 12.2515 237.053 12.1329 240.622 12.7656C243.854 13.339 247.591 14.6934 250.251 16.2455L250.864 16.6113L250.953 16.384C251.338 15.514 254.017 8.83086 254.017 8.75177C254.017 8.63314 251.961 7.44679 251.002 7.02168C248.758 6.01328 246.692 5.34102 244.171 4.79728C241.343 4.18433 239.92 4.04592 236.42 4.00637C234.71 3.9866 232.881 4.01626 232.367 4.05581ZM150.963 13.774C153.88 14.3177 155.817 15.1877 157.34 16.5916C159.416 18.5293 160.335 20.8525 160.326 24.1743C160.316 29.7502 157.281 33.3092 151.556 34.456C149.698 34.8317 148.057 34.9009 141.542 34.9009H135.481V24.2139V13.5367L142.827 13.5763C148.887 13.6059 150.301 13.6455 150.963 13.774ZM201.986 26.8139C204.725 33.1807 206.939 38.4105 206.929 38.4303C206.91 38.45 202.421 38.45 196.954 38.4402L187.009 38.4105L191.962 26.8139C194.69 20.4472 196.944 15.2273 196.974 15.2273C197.004 15.2273 199.258 20.4472 201.986 26.8139Z" fill="#F5FAF7"/>
<path d="M259.95 31.6387V58.6282H264.992H270.034V31.6387V4.64928H264.992H259.95V31.6387Z" fill="#F5FAF7"/>
<path d="M278.337 31.6387V58.6282H297.467H316.597V54.3771V50.126H302.509H288.421V27.3876V4.64928H283.379H278.337V31.6387Z" fill="#F5FAF7"/>
<path d="M73 31.9346V58.9241H86.9693C95.1748 58.9241 101.621 58.8845 102.609 58.8252C107.117 58.5583 110.36 57.8168 113.286 56.4031C116.45 54.8707 118.714 52.587 119.9 49.7101C121.403 46.0621 121.205 40.8322 119.436 37.4314C117.893 34.4655 115.106 32.1719 111.517 30.9065C111.369 30.857 111.556 30.6988 112.397 30.1452C113.563 29.3741 114.848 28.1581 115.689 27.0409C115.975 26.6554 116.48 25.815 116.806 25.1626C117.547 23.6598 117.923 22.2362 118.081 20.3084C118.368 16.8878 117.587 13.8725 115.807 11.4701C115.224 10.6792 113.801 9.28524 112.95 8.66241C110.162 6.62585 106.267 5.40984 101.324 5.04404C100.474 4.98473 94.7893 4.94518 86.4749 4.94518H73V31.9346ZM98.8229 12.953C103.983 13.3287 106.91 15.1181 107.75 18.4399C107.978 19.3396 107.987 21.1487 107.77 22.0583C107.048 25.0241 104.636 26.7641 100.286 27.4463C99.4062 27.5847 98.032 27.6143 91.1709 27.6539L83.084 27.7033V20.2787V12.8542H90.2812C94.2356 12.8542 98.0814 12.9036 98.8229 12.953ZM101.324 35.5925C104.764 35.8891 107.216 36.7492 108.798 38.2322C110.607 39.9227 111.23 43.1753 110.291 45.9237C109.411 48.4743 107.355 49.8485 103.153 50.6789C102.412 50.8371 101.235 50.8569 92.7033 50.8866L83.084 50.9261V43.2049V35.4937H91.6158C96.5194 35.4937 100.642 35.5431 101.324 35.5925Z" fill="#F5FAF7"/>
</svg>
