<svg width="220" height="38" viewBox="0 0 220 38" fill="none" xmlns="http://www.w3.org/2000/svg">
<path d="M18.1729 0.00890057C17.233 0.0290193 16.2673 0.123865 15.3476 0.286731C12.006 0.878797 8.95081 2.36375 6.38423 4.64388C5.53732 5.39689 4.70574 6.27828 3.98338 7.18842C1.63907 10.1411 0.274819 13.6762 0.0324356 17.425C0.00369449 17.8782 -0.00396981 18.1953 0.00177841 18.8027C0.0065686 19.3852 0.0113588 19.5097 0.042016 19.9447C0.321763 23.8908 1.85462 27.677 4.41546 30.7465C5.47984 32.0217 6.71858 33.1723 8.056 34.1265C10.7462 36.0464 13.9633 37.1759 17.3921 37.4049C18.1595 37.4556 19.0275 37.4604 19.792 37.4183C23.49 37.2152 27.0481 35.9764 29.4586 34.0527C29.5946 33.9435 29.8571 33.7203 29.9711 33.6158C30.1225 33.4769 30.3601 33.2412 30.3572 33.2317C30.3534 33.2192 27.2762 31.5206 26.0001 30.826C24.8562 30.2033 24.1185 29.8086 24.061 29.7894C23.9757 29.7607 23.8924 29.7521 23.74 29.7578C23.5446 29.7655 23.4517 29.7856 23.1738 29.8804C22.2072 30.2129 21.5231 30.394 20.7356 30.5252C20.0008 30.6478 19.4068 30.6967 18.6663 30.6977C17.7351 30.6977 16.9274 30.6114 16.0652 30.4208C14.2191 30.0107 12.4524 29.1246 10.9962 27.8762C10.6542 27.5831 10.1848 27.1309 9.90981 26.8281C9.14913 25.9937 8.50532 25.0615 8.00331 24.069C6.8163 21.718 6.44171 19.0968 6.93606 16.5935C7.50322 13.7174 8.99296 11.2016 11.1888 9.41202C13.649 7.40589 16.7981 6.46893 19.9644 6.80041C20.8937 6.89813 21.8268 7.10411 22.7044 7.40589C22.8127 7.4423 22.9803 7.49978 23.078 7.53331C23.3386 7.62241 23.5379 7.66264 23.7228 7.66264C23.8464 7.66264 23.9384 7.64061 24.0504 7.58409C24.29 7.46337 25.3333 6.90963 26.048 6.5245C26.8719 6.08093 27.3528 5.81939 29.2813 4.76459C29.5822 4.60076 29.9807 4.38233 30.1675 4.28078C30.3543 4.17923 30.5115 4.09205 30.5153 4.08822C30.5239 4.08151 30.2729 3.88511 30.019 3.69925C28.2131 2.38195 26.1495 1.37889 23.9594 0.75521C22.5176 0.345171 21.1016 0.109494 19.5812 0.0271032C19.404 0.0175229 18.6232 -0.00259586 18.5417 0.000278251C18.5207 0.00123629 18.3549 0.00506843 18.1729 0.00890057Z" fill="#65BF95"/>
<path d="M30.5736 8.99436C28.9832 9.93802 27.7004 10.7045 27.7014 10.7112C27.7023 10.7188 27.7713 10.8165 27.8547 10.9296C28.715 12.0879 29.1681 12.793 29.5255 13.5278C29.7775 14.0461 29.971 14.5807 30.0936 15.0942L30.1262 15.2302L22.9495 15.2312C19.0024 15.2312 15.0744 15.235 14.2208 15.2398C12.7205 15.2484 12.6659 15.2494 12.5759 15.2685C12.3881 15.3069 12.1658 15.394 12.0327 15.4803C11.9618 15.5262 11.8669 15.6134 11.8391 15.6594C11.7941 15.7322 11.615 16.3109 11.5249 16.674C11.3304 17.4624 11.2452 18.1886 11.2586 18.9483C11.2672 19.3986 11.3026 19.7799 11.3764 20.1928C11.4665 20.7006 11.6408 21.3204 11.7673 21.5887C11.9656 22.0054 12.2339 22.1808 12.7215 22.2133C12.7876 22.2181 13.4343 22.2181 14.1586 22.2143C16.5192 22.2018 23.3672 22.1951 26.9311 22.2028L30.4145 22.2105L29.1222 24.5184C28.4103 25.7868 27.8298 26.8263 27.8317 26.8272C27.8595 26.8473 33.5033 30.1765 33.509 30.1765C33.5128 30.1765 33.5857 30.0932 33.67 29.9916C34.5878 28.8908 35.3264 27.678 35.9328 26.2773C36.752 24.3852 37.2607 22.2114 37.4054 19.9974C37.4322 19.5749 37.4398 19.3775 37.4456 18.8813C37.4858 15.4218 36.6648 12.1118 35.1223 9.5117C34.7497 8.88322 34.3157 8.27487 33.8606 7.74316C33.7303 7.59179 33.5013 7.33791 33.4659 7.3063C33.4487 7.29001 33.3394 7.3542 30.5736 8.99436Z" fill="#65BF95"/>
<path d="M61.2808 5.52596C57.517 5.71968 54.2881 7.1173 51.8896 9.58964C49.837 11.7068 48.6885 14.2484 48.4071 17.2973C48.3287 18.1552 48.3748 19.8988 48.504 20.7152C48.6193 21.4855 48.896 22.5879 49.1267 23.2152C49.3942 23.944 50.0307 25.1894 50.4551 25.8259C52.2771 28.5566 54.9846 30.4201 58.2965 31.2365C59.0483 31.421 59.9063 31.5594 60.7965 31.6332C61.7006 31.707 63.5456 31.6609 64.4635 31.5363C67.2541 31.1627 69.7772 30.2586 71.7883 28.9072L72.3741 28.5151L72.3972 18.1598H67.0004V25.6184L66.6222 25.7844C65.8196 26.135 64.9894 26.3795 64.0715 26.5409C63.3934 26.6562 61.6268 26.6562 60.9349 26.5409C58.3195 26.0981 56.3038 24.6405 55.1738 22.3757C54.2605 20.5445 54.0667 18.1552 54.6618 16.0888C55.3629 13.6579 57.088 11.8452 59.4911 11.0195C60.3122 10.7336 60.9533 10.6136 61.922 10.5537C64.5465 10.3876 66.839 11.2133 68.6702 12.9845C68.887 13.1967 69.09 13.3674 69.1176 13.3581C69.2191 13.3212 72.8584 9.93098 72.8584 9.87101C72.8584 9.78337 71.8483 8.78244 71.3824 8.40882C69.1776 6.6422 66.4884 5.69662 63.1904 5.52134C62.2864 5.47522 62.2541 5.47522 61.2808 5.52596Z" fill="#42A4FF"/>
<path d="M180.701 5.79797C178.081 6.04705 176.075 6.80813 174.544 8.13655C172.952 9.52033 172.117 11.6698 172.302 13.9023C172.385 14.8802 172.532 15.4752 172.86 16.1348C173.312 17.0573 174.045 17.8691 174.982 18.4918C175.461 18.8101 176.688 19.4051 177.389 19.6542C178.141 19.9263 179.631 20.3461 180.817 20.6274C184.304 21.4485 185.282 21.7898 186.25 22.5324C186.933 23.049 187.251 23.7594 187.191 24.6312C187.081 26.3609 185.549 27.4218 182.823 27.6616C182.251 27.7124 177.851 27.717 176.831 27.6662L176.213 27.6386L166.55 6.23617L164.225 6.22233L161.896 6.21311L156.693 17.7769C153.828 24.1422 151.434 29.4605 151.37 29.6035L151.25 29.8618L148.921 26.5408C147.638 24.7096 146.591 23.1966 146.591 23.1782C146.591 23.1644 146.923 22.9799 147.329 22.7769C147.735 22.5693 148.256 22.2695 148.482 22.1035C150.18 20.8857 151.255 19.2252 151.66 17.1911C151.873 16.1394 151.91 15.0093 151.776 13.8469C151.411 10.7334 149.465 8.28416 146.416 7.09411C145.493 6.73433 144.622 6.51754 143.385 6.33765C142.74 6.24539 142.518 6.24078 136.757 6.22694L130.793 6.20849V31.3978H135.498V24.0638H142.117L147.223 31.3978H155.447L157.929 25.586L170.475 25.609L171.707 28.4827C172.385 30.0602 172.948 31.3609 172.957 31.3701C172.966 31.3794 175.134 31.4024 177.772 31.4209C183.427 31.4578 184.281 31.4255 185.798 31.1165C187.445 30.7751 189.216 29.765 190.212 28.6026C190.997 27.6847 191.536 26.5454 191.758 25.3415C191.868 24.7511 191.864 23.4273 191.753 22.7954C191.541 21.6191 191.089 20.7197 190.277 19.8756C189.728 19.3036 189.225 18.9485 188.358 18.5149C187.048 17.8553 186.117 17.5601 182.754 16.7298C179.76 15.9872 178.939 15.7104 178.155 15.1661C177.265 14.5527 176.919 13.8746 176.979 12.8598C177.053 11.4991 177.98 10.5166 179.663 10C180.877 9.62181 182.888 9.56646 184.553 9.86166C186.061 10.1292 187.805 10.7611 189.046 11.4853L189.331 11.656L189.373 11.5499C189.553 11.144 190.803 8.02585 190.803 7.98895C190.803 7.9336 189.843 7.38009 189.396 7.18175C188.349 6.71127 187.385 6.39761 186.209 6.14392C184.89 5.85794 184.225 5.79336 182.592 5.77491C181.795 5.76569 180.941 5.77952 180.701 5.79797ZM142.721 10.3321C144.082 10.5858 144.986 10.9917 145.696 11.6467C146.665 12.5508 147.094 13.6348 147.089 15.1846C147.085 17.7861 145.669 19.4466 142.998 19.9817C142.131 20.157 141.365 20.1892 138.325 20.1892H135.498V10.2214L138.925 10.2399C141.753 10.2537 142.412 10.2722 142.721 10.3321ZM166.527 16.4161C167.805 19.3866 168.838 21.8267 168.833 21.8359C168.824 21.8452 166.73 21.8452 164.179 21.8405L159.539 21.8267L161.85 16.4161C163.123 13.4456 164.174 11.0102 164.188 11.0102C164.202 11.0102 165.254 13.4456 166.527 16.4161Z" fill="#42A4FF"/>
<path d="M193.57 31.2595H198.275V6.07474H193.57V31.2595Z" fill="#42A4FF"/>
<path d="M202.149 31.2595H220V27.2926H206.854V6.07474H202.149V31.2595Z" fill="#42A4FF"/>
<path d="M106.346 31.3976H112.863C116.692 31.3976 119.699 31.3791 120.161 31.3515C122.264 31.2269 123.777 30.881 125.142 30.2214C126.618 29.5064 127.674 28.4409 128.228 27.0987C128.929 25.3966 128.837 22.9566 128.011 21.3698C127.292 19.9861 125.991 18.9159 124.316 18.3255C124.247 18.3025 124.335 18.2287 124.727 17.9704C125.271 17.6106 125.871 17.0432 126.263 16.522C126.397 16.3421 126.632 15.95 126.784 15.6456C127.13 14.9445 127.305 14.2803 127.379 13.3808C127.513 11.7849 127.149 10.378 126.318 9.25718C126.046 8.88818 125.382 8.2378 124.985 7.94721C123.685 6.99702 121.867 6.42967 119.561 6.259C119.164 6.23133 116.512 6.21288 112.633 6.21288H106.346V31.3976ZM118.394 9.94907C120.802 10.1244 122.167 10.9592 122.559 12.5091C122.665 12.9288 122.67 13.7729 122.568 14.1973C122.232 15.581 121.106 16.3929 119.077 16.7111C118.666 16.7757 118.025 16.7895 114.824 16.808L111.051 16.831V9.90295H114.409C116.254 9.90295 118.048 9.92601 118.394 9.94907ZM119.561 20.5119C121.166 20.6503 122.31 21.0516 123.048 21.7435C123.892 22.5322 124.183 24.0497 123.745 25.332C123.334 26.5221 122.375 27.1632 120.414 27.5507C120.068 27.6245 119.519 27.6337 115.539 27.6476L111.051 27.666V20.4658H115.031C117.319 20.4658 119.243 20.4888 119.561 20.5119Z" fill="#42A4FF"/>
<path d="M74.934 11.4253H82.7293V31.2595H88.4489V11.4253H96.2442V6.76663H74.934V11.4253Z" fill="#42A4FF"/>
</svg>
